<svg width="29" height="23" viewBox="0 0 29 23" fill="none" xmlns="http://www.w3.org/2000/svg">
<path id="Vector" d="M16.086 1.09802C16.4611 0.723082 16.9697 0.512451 17.5 0.512451C18.0303 0.512451 18.5389 0.723082 18.914 1.09802L27.914 10.098C28.2889 10.4731 28.4996 10.9817 28.4996 11.512C28.4996 12.0424 28.2889 12.551 27.914 12.926L18.914 21.926C18.5368 22.2903 18.0316 22.4919 17.5072 22.4874C16.9828 22.4828 16.4812 22.2725 16.1104 21.9017C15.7395 21.5308 15.5292 21.0292 15.5247 20.5048C15.5201 19.9804 15.7217 19.4752 16.086 19.098L21.5 13.512H2.5C1.96957 13.512 1.46086 13.3013 1.08579 12.9262C0.710714 12.5512 0.5 12.0425 0.5 11.512C0.5 10.9816 0.710714 10.4729 1.08579 10.0978C1.46086 9.72274 1.96957 9.51202 2.5 9.51202H21.5L16.086 3.92602C15.7111 3.55097 15.5004 3.04235 15.5004 2.51202C15.5004 1.9817 15.7111 1.47308 16.086 1.09802Z" fill="#A4A4A4"/>
</svg>
