<svg width="28" height="27" viewBox="0 0 28 27" fill="none" xmlns="http://www.w3.org/2000/svg">
<g id="Group">
<path id="Vector" d="M14 26C20.9036 26 26.5 20.4036 26.5 13.5C26.5 6.59644 20.9036 1 14 1C7.09644 1 1.5 6.59644 1.5 13.5C1.5 20.4036 7.09644 26 14 26Z" stroke="#666666" stroke-width="2" stroke-linecap="round"/>
<path id="Vector_2" d="M8.85156 18.805C9.46781 18.2712 10.2791 17.8862 11.1541 17.6337C12.0805 17.3746 13.0384 17.2455 14.0003 17.25C14.9828 17.25 15.9628 17.3787 16.8466 17.6337C17.7216 17.8862 18.5341 18.2712 19.1491 18.805" stroke="#666666" stroke-width="2" stroke-linecap="round"/>
<path id="Vector_3" d="M10.25 12.5625C11.1129 12.5625 11.8125 11.8629 11.8125 11C11.8125 10.1371 11.1129 9.4375 10.25 9.4375C9.38706 9.4375 8.6875 10.1371 8.6875 11C8.6875 11.8629 9.38706 12.5625 10.25 12.5625Z" fill="#666666" stroke="#666666" stroke-width="0.5" stroke-linecap="round"/>
<path id="Vector_4" d="M17.75 12.5625C18.6129 12.5625 19.3125 11.8629 19.3125 11C19.3125 10.1371 18.6129 9.4375 17.75 9.4375C16.8871 9.4375 16.1875 10.1371 16.1875 11C16.1875 11.8629 16.8871 12.5625 17.75 12.5625Z" fill="#666666" stroke="#666666" stroke-width="0.5" stroke-linecap="round"/>
</g>
</svg>
