<svg width="29" height="30" viewBox="0 0 29 30" fill="none" xmlns="http://www.w3.org/2000/svg">
<path id="Vector" d="M2.5361 0.224609C2.07338 0.224609 1.62963 0.409142 1.30244 0.73761C0.975254 1.06608 0.791443 1.51158 0.791443 1.9761C0.791443 2.44063 0.975254 2.88613 1.30244 3.2146C1.62963 3.54307 2.07338 3.7276 2.5361 3.7276H13.004V28.2485C13.004 28.713 13.1878 29.1585 13.515 29.487C13.8422 29.8155 14.286 30 14.7487 30C15.2114 30 15.6551 29.8155 15.9823 29.487C16.3095 29.1585 16.4933 28.713 16.4933 28.2485V3.7276H26.9612C27.4239 3.7276 27.8677 3.54307 28.1949 3.2146C28.5221 2.88613 28.7059 2.44063 28.7059 1.9761C28.7059 1.51158 28.5221 1.06608 28.1949 0.73761C27.8677 0.409142 27.4239 0.224609 26.9612 0.224609H2.5361Z" fill="#666666"/>
</svg>
