<svg width="31" height="31" viewBox="0 0 31 31" fill="none" xmlns="http://www.w3.org/2000/svg">
<g id="maki:arrow">
<path id="Vector" d="M17.086 5.086C17.4611 4.71106 17.9697 4.50043 18.5 4.50043C19.0303 4.50043 19.5389 4.71106 19.914 5.086L28.914 14.086C29.2889 14.4611 29.4996 14.9697 29.4996 15.5C29.4996 16.0303 29.2889 16.5389 28.914 16.914L19.914 25.914C19.5368 26.2783 19.0316 26.4799 18.5072 26.4753C17.9828 26.4708 17.4812 26.2605 17.1104 25.8896C16.7395 25.5188 16.5292 25.0172 16.5247 24.4928C16.5201 23.9684 16.7217 23.4632 17.086 23.086L22.5 17.5H3.5C2.96957 17.5 2.46086 17.2893 2.08579 16.9142C1.71071 16.5391 1.5 16.0304 1.5 15.5C1.5 14.9696 1.71071 14.4609 2.08579 14.0858C2.46086 13.7107 2.96957 13.5 3.5 13.5H22.5L17.086 7.914C16.7111 7.53894 16.5004 7.03033 16.5004 6.5C16.5004 5.96967 16.7111 5.46106 17.086 5.086Z" fill="white"/>
</g>
</svg>
