<svg width="31" height="31" viewBox="0 0 31 31" fill="none" xmlns="http://www.w3.org/2000/svg">
<g id="ph:question">
<path id="Vector" d="M16.9067 21.5938C16.9067 21.8719 16.8243 22.1438 16.6697 22.375C16.5152 22.6063 16.2956 22.7865 16.0386 22.893C15.7817 22.9994 15.4989 23.0272 15.2261 22.973C14.9534 22.9187 14.7028 22.7848 14.5061 22.5881C14.3095 22.3915 14.1755 22.1409 14.1213 21.8681C14.067 21.5953 14.0949 21.3126 14.2013 21.0556C14.3077 20.7986 14.488 20.579 14.7192 20.4245C14.9505 20.27 15.2224 20.1875 15.5005 20.1875C15.8735 20.1875 16.2311 20.3357 16.4949 20.5994C16.7586 20.8631 16.9067 21.2208 16.9067 21.5938ZM15.5005 8.9375C12.9153 8.9375 10.813 10.8301 10.813 13.1562V13.625C10.813 13.8736 10.9118 14.1121 11.0876 14.2879C11.2634 14.4637 11.5019 14.5625 11.7505 14.5625C11.9991 14.5625 12.2376 14.4637 12.4134 14.2879C12.5892 14.1121 12.688 13.8736 12.688 13.625V13.1562C12.688 11.8672 13.9501 10.8125 15.5005 10.8125C17.0509 10.8125 18.313 11.8672 18.313 13.1562C18.313 14.4453 17.0509 15.5 15.5005 15.5C15.2519 15.5 15.0134 15.5988 14.8376 15.7746C14.6618 15.9504 14.563 16.1889 14.563 16.4375V17.375C14.563 17.6236 14.6618 17.8621 14.8376 18.0379C15.0134 18.2137 15.2519 18.3125 15.5005 18.3125C15.7491 18.3125 15.9876 18.2137 16.1634 18.0379C16.3392 17.8621 16.438 17.6236 16.438 17.375V17.2906C18.5755 16.898 20.188 15.193 20.188 13.1562C20.188 10.8301 18.0856 8.9375 15.5005 8.9375ZM27.688 15.5C27.688 17.9105 26.9732 20.2668 25.634 22.271C24.2948 24.2752 22.3914 25.8373 20.1644 26.7598C17.9375 27.6822 15.487 27.9236 13.1228 27.4533C10.7587 26.9831 8.58708 25.8223 6.88263 24.1179C5.17818 22.4134 4.01743 20.2418 3.54717 17.8777C3.07692 15.5135 3.31827 13.063 4.24071 10.836C5.16315 8.60907 6.72526 6.70564 8.72948 5.36646C10.7337 4.02728 13.09 3.3125 15.5005 3.3125C18.7318 3.31591 21.8297 4.60104 24.1146 6.8859C26.3994 9.17076 27.6846 12.2687 27.688 15.5ZM25.813 15.5C25.813 13.4604 25.2082 11.4666 24.075 9.77068C22.9419 8.0748 21.3313 6.75302 19.4469 5.97249C17.5626 5.19196 15.4891 4.98774 13.4886 5.38565C11.4882 5.78356 9.65068 6.76573 8.20846 8.20796C6.76623 9.65019 5.78406 11.4877 5.38615 13.4881C4.98824 15.4886 5.19246 17.5621 5.97299 19.4464C6.75351 21.3308 8.07529 22.9414 9.77118 24.0745C11.4671 25.2077 13.4609 25.8125 15.5005 25.8125C18.2346 25.8094 20.8558 24.7219 22.7891 22.7886C24.7224 20.8553 25.8099 18.2341 25.813 15.5Z" fill="#A4A4A4"/>
</g>
</svg>
